<svg xmlns="http://www.w3.org/2000/svg" xml:space="preserve" width="60" height="62" fill="none" viewBox="0 0 60 62"><g clip-path="url(#a)"><path fill="#E63311" d="M59.935 3.08C59.749 1.63 59.12.3 57.44.03c-1.523-.244-2.086 1.03-2.622 2.201-.858 1.876-3.013 2.432-4.892 2.563-3.448.24-7.024.184-10.451.832-3.032.574-5.929 1.885-8.41 3.75-1.26.945-2.466 2.003-3.389 3.292-.063.09-.265.503-.393.485-.083-.012-.057-.179-.057-.237.025-1.359-.668-2.508-1.665-3.377-.444-.388-.958-.776-1.573-.781-.17 0-.355.046-.422.22-.063.167-.01.38.06.536.968 2.155-.504 4.826-2.35 5.917-1.09.644-2.39.889-3.635 1.013-8.245.823-15.764 7.452-17.325 15.682-1.508 7.948 2.531 16.292 9.033 20.831 5.88 4.107 13.792 5.1 20.386 2.163a18.586 18.586 0 0 0 8.06-6.887c1.708-2.641 2.48-6.07 2.28-9.2-.01-.146-.149-1.425-.029-1.455 1.02-.253 1.73-1.976.983-3.767-.35-.835-.937-1.613-1.395-2.39-1.193-2.028-2.68-4.127-2.718-6.576-.015-.963.324-1.934 1.046-2.59 1.522-1.382 3.795-.73 5.64-1.037 2.244-.372 4.21-1.735 5.562-3.54.448-.599.838-1.238 1.178-1.904.045-.085.28-.742.353-.756 1.332-.275 2.648-.675 3.858-1.307 1.346-.701 2.53-1.691 3.404-2.94 1.262-1.796 1.955-3.976 2.034-6.166a9.637 9.637 0 0 0-.056-1.525z"/><path fill="#E63311" fill-rule="evenodd" d="M37.492 33.154c.196-.07.226-.166 0 0z" clip-rule="evenodd"/><path fill="#fff" fill-rule="evenodd" d="M22.794 18.519c-8.716-1.015-19.095 6.4-20.035 15.533-.07.69-.081 1.385-.023 2.076.153 1.845.815 3.981 2.07 5.426.472.542 1.019 1.11 1.58 1.564 1.037.662 1.89 1.275 3.661 1.734 0 0 1.37.377.95-.107-1.235-.961-1.916-1.864-2.474-2.713-1.33-2.024-1.748-4.236-1.555-6.42 1.89 2.257 4.556 3.704 8.777 3.197.196-.023.249-.292.074-.388-2.28-1.232-6.504-4.758-7.495-7.608.051-.108.102-.216.155-.324.02-.002.039 0 .058.002 4.41.855 13.018.972 13.893-5.037.028-.188-.189-.317-.33-.191-1.487 1.302-3.33 1.686-5.265 1.672-1.768-.014-3.61-.358-5.334-.64.245-.25.495-.496.748-.738a34.662 34.662 0 0 1 3.882-3.259c2.022-1.445 4.186-2.614 6.654-3.074.243-.046.508-.089.712-.236.471-.341-.513-.451-.703-.473v.004z" clip-rule="evenodd"/><path fill="#fff" d="M34.79 33.641c-1.905-2.838-4.802-4.78-5.913-8.139-1.003-3.035-1.182-5.492-.391-8.136.02-.069-.597.44-.632.475-2.854 2.947-2.817 6.678-3.782 10.447-.82 3.2-1.857 6.356-3.274 9.338-1.305 2.747-2.89 5.64-5.475 7.348-2.806 1.63-6.863 1.842-9.13-.223l.005.01c-.532-.448-.566-.218-.51.032a12.995 12.995 0 0 0 2.22 3.503c1.097 1.238 4.677 4.955 12.751 5.72 8.296.785 16.053-5.45 16.673-12.756.25-2.95-1.11-5.483-2.542-7.619zm-6.606 13.633c-2.54 1.692-4.786 2.613-7.992 2.166-1-.14-1.856-.31-2.85-.717 1.652-.79 8.043-4.617 10.27-17.354.664.72 1.37 1.424 2.01 2.233 1.47 1.85 3.284 3.59 3.323 6.25.039 2.79-2.576 5.968-4.761 7.422z" style="display:inline"/><path fill="#fff" d="M37.702 13.971c1.743-1.335 3.992-2.592 7.008-2.511 6.636.177 11.951.388 12.471-7.09.016-.23-.294-.325-.404-.121-1.843 3.444-6.25 2.95-10.065 3.184-3.175.205-6.598-.044-9.788 1.865-3.584 2.148-6.443 5.908-6.553 10.186-.061 2.373.554 4.741 1.659 6.834.562 1.067 1.3 2.025 2.074 2.944.89 1.057 1.833 2.116 2.858 3.062.306.283.687.67 1.104.8.123-.28-.27-.6-.429-.78-.953-1.095-1.879-2.344-2.565-3.624-.47-.886-.845-1.82-1.116-2.786-.332-1.17-.616-2.268-.321-3.48a6.169 6.169 0 0 1 1.476-2.708c.887-.958 2.076-1.652 3.371-1.866 3.46-.572 6.934 1.471 9.553-3.744.032-.064-.04-.133-.1-.092-1.524.995-7.253-1.011-10.162.074-.302.076-.166-.063-.073-.143z" style="display:inline"/><path fill="#fff" d="m10.134 57.107-.062 1.085c-.007.123-.018.21.069.344l-.291.515-1.016-.58.196-.346c.128-.227.121-.294.139-.549l.026-.567-.007-.003-.26.46c-.063.108-.133.211-.066.34l-.291.516-1.078-.617.291-.515c.145-.007.196-.12.258-.23l.739-1.305c.062-.108.132-.211.065-.34l.291-.516 1.078.617-.291.515c-.145.007-.196.12-.258.23l-.211.372.398-.216c.284-.161.3-.179.365-.294l.26-.457.963.55-.291.516a.387.387 0 0 0-.284.068zm3.786.021 1.03.402-.214.553c-.141.046-.207.182-.282.302l-1.256 2.044-.914-.358.309-1.588-.007-.004-.872 1.37-.896-.351.452-2.358c.024-.136.058-.299-.018-.421l.213-.553 1.188.464-.214.553c-.08.002-.134.051-.164.127l-.263 1.026.007.003.98-1.574.583.228-.324 1.826.007.004.474-.939c.03-.076.021-.15-.035-.205l.213-.553.004.002zm1.22 3.85-1.092-.278.145-.574c.127-.047.18-.212.24-.33l.998-2.19 1.406.358-.13 2.463c-.008.107-.017.298.085.36l-.144.574-1.247-.317.144-.574c.085-.01.138-.062.16-.149.008-.033.008-.065.008-.097l-.478-.12c-.014.028-.032.06-.039.09-.023.09.005.166.085.21l-.145.574zm.645-1.408.08-1h-.007l-.397.917.326.083zm3.317.328h.007l.086-.581c.018-.124.048-.244-.062-.34l.087-.586 1.034.154-.087.586c-.132.059-.14.184-.157.308l-.353 2.395-.977-.146-.381-1.574h-.007l-.085.574c-.017.124-.047.244.062.34l-.086.586-1.004-.149.086-.586c.133-.058.14-.184.157-.308l.22-1.484c.017-.124.047-.245-.063-.34l.087-.587 1.095.163.342 1.577zm3.774-.11-.98-.026v-.075c.005-.149.044-.432-.182-.437-.19-.006-.212.177-.215.322l-.04 1.484c0 .036.01.218.202.223.226.006.203-.28.206-.43l.004-.147-.177-.005.018-.65 1.155.03-.042 1.592c-.328.287-.815.34-1.23.33-.292-.008-.63-.041-.855-.245-.294-.27-.301-.574-.293-.939l.034-1.27c.007-.295.05-.582.29-.779.243-.2.569-.246.87-.237.447.012.905.13 1.256.42l-.022.84h.001zm1.664-1.298c.277-.027.596-.053.846.106.286.188.343.487.373.806l.118 1.245c.03.326.04.58-.185.84-.21.247-.498.293-.805.323l-1.436.139-.056-.59c.11-.062.111-.163.104-.276l-.155-1.617c-.014-.117-.032-.213-.155-.252l-.057-.59 1.406-.134zm-.013 2.648.08-.008c.22-.02.28-.11.257-.348l-.12-1.252c-.023-.241-.099-.316-.319-.294l-.08.007.18 1.896.002-.002zm4.26-1.017c.18.806-.257 1.116-.961 1.275-.704.16-1.233.067-1.413-.738l-.308-1.373c-.18-.806.257-1.116.96-1.275.705-.16 1.234-.067 1.414.739l.307 1.372zm-1.37.361c.005.023.046.257.25.211.205-.046.141-.276.136-.3l-.33-1.473c-.005-.023-.046-.253-.25-.207-.205.046-.143.271-.138.294l.33 1.475zm3.199-1.912h.008l-.203-.555c-.043-.117-.076-.237-.217-.269l-.205-.556.98-.363.206.556c-.089.115-.034.228.008.345l.835 2.27-.928.344-1.087-1.195h-.007l.2.547c.042.117.075.237.216.27l.205.555-.953.353-.204-.556c.088-.115.034-.229-.009-.346l-.517-1.407c-.042-.117-.076-.238-.217-.27l-.204-.556 1.039-.384 1.053 1.217h.002zm3.246-1.952-.866.462-.035-.065c-.069-.131-.175-.397-.374-.29-.17.09-.097.258-.03.385l.693 1.31c.016.031.115.187.284.096.2-.106.039-.343-.032-.476l-.069-.13-.155.082-.303-.575 1.021-.544.745 1.406c-.145.413-.542.7-.91.895-.26.138-.567.276-.867.21-.388-.088-.543-.349-.714-.673l-.593-1.12c-.137-.263-.243-.532-.128-.822.112-.294.373-.494.64-.636.395-.211.852-.335 1.3-.257l.393.744zm3.666-2.903c-.106-.113-.179-.207-.26-.232-.077-.028-.164.006-.294.15l.434.463.472-.446.445.473-.473.446.291.31c.085.09.163.19.304.161l.403.43-.903.854-.404-.43c.036-.14-.058-.224-.142-.316l-1.025-1.09c-.12-.128-.2-.197-.318-.15l-.404-.43 1.732-1.638.785.836-.642.608zm2.483-.857c.097.078.187.165.325.117l.462.368-.773.974-.462-.368c.016-.145-.09-.212-.187-.29l-1.17-.934c-.096-.078-.186-.164-.324-.117l-.462-.368.88-1.112c.157-.198.351-.45.595-.538.29-.11.57-.006.806.184.285.228.467.51.307.871l.007.005c.26-.203.435-.2.7.011l.148.119c.088.07.215.172.334.104l.462.368-.681.861c-.17-.081-.307-.157-.736-.513-.206-.165-.326-.227-.506-.013l-.026.034.298.237zm-.818-.653.063-.082c.138-.173.09-.3-.093-.446-.168-.133-.302-.152-.44.021l-.063.082.53.425zm3.011-3.257 1.044.599-1.214 2.135-.513-.294c-.007-.145-.12-.196-.227-.258l-1.299-.744c-.107-.062-.21-.133-.338-.066l-.514-.294 1.214-2.135.977.56-.466.818-.088-.05c-.196-.112-.29-.131-.427.108l-.03.053.515.296.32-.562.562.323-.319.563.584.335.03-.053c.152-.266.048-.321-.185-.46l-.096-.054.466-.818Zm1.066-2.696 1.123.434-.88 2.297-.55-.212c-.03-.142-.149-.177-.266-.222l-1.395-.538c-.116-.044-.227-.1-.344-.014l-.55-.213.88-2.297 1.052.406-.338.88-.093-.037c-.21-.081-.309-.087-.407.172l-.022.056.554.215.231-.604.605.234-.232.604.626.242.02-.057c.11-.286 0-.324-.251-.426l-.1-.04.336-.88zm-.66-2.024c-.133-.028-.355-.104-.401.105-.046.209.187.233.321.262l1.256.274c.132.029.355.105.4-.104.046-.21-.188-.234-.32-.262l-.37-.08.21-.967 1.085.237c.16.305.187.748.112 1.153-.076.404-.251.773-.484.93-.323.22-.661.135-1.018.057l-1.13-.246c-.293-.064-.568-.163-.715-.443-.136-.257-.137-.63-.04-1.004.1-.39.305-.747.592-1.031l.904.197-.21.967-.194-.043.001-.002zm.333-2.743c-.147-.009-.353-.018-.365.18-.01.13.084.206.208.213.065.004.132 0 .19-.05.066-.053.122-.196.15-.277.081-.241.19-.565.342-.762a.605.605 0 0 1 .334-.232 1.35 1.35 0 0 1 .462-.048h.016c.638.041 1.093.35 1.033 1.327-.026.416-.135.852-.423 1.167l-.89-.057.061-.999c.198.013.344.025.416-.005a.21.21 0 0 0 .12-.177c.01-.138-.123-.207-.243-.214-.34-.022-.381.187-.47.465-.193.61-.366.95-1.082.904l-.075-.006c-.354-.037-.529-.106-.717-.386-.154-.228-.171-.549-.154-.855.028-.445.141-.833.423-1.187l.782.05-.06.953-.062-.004z" style="display:inline;fill:#5a5c5f;fill-opacity:1"/></g><defs><clipPath id="a"><path fill="#fff" d="M0 0h60v62H0z"/></clipPath></defs></svg>